<mxfile host="app.diagrams.net" modified="2022-09-14T05:06:21.670Z" agent="5.0 (Macintosh)" etag="-MbJMSm0qO5IZNLxWYBD" version="20.3.0" type="github" pages="2">
  <diagram id="OMeZVWE5jmBbQeLRW_Ae" name="Page-1">
    <mxGraphModel dx="1225" dy="713" grid="1" gridSize="10" guides="1" tooltips="1" connect="1" arrows="1" fold="1" page="1" pageScale="1" pageWidth="850" pageHeight="1100" math="0" shadow="0">
      <root>
        <mxCell id="0" />
        <mxCell id="1" parent="0" />
        <mxCell id="UKFlOs_Srk2aH1QoFIq_-1" value="Respondent" style="shape=umlActor;verticalLabelPosition=bottom;verticalAlign=top;html=1;outlineConnect=0;" vertex="1" parent="1">
          <mxGeometry x="110" y="370" width="30" height="60" as="geometry" />
        </mxCell>
      </root>
    </mxGraphModel>
  </diagram>
  <diagram id="f5m-7yX2li_sJNwSE2jV" name="Page-2">
    <mxGraphModel dx="801" dy="672" grid="1" gridSize="10" guides="1" tooltips="1" connect="1" arrows="1" fold="1" page="1" pageScale="1" pageWidth="850" pageHeight="1100" math="0" shadow="0">
      <root>
        <mxCell id="0" />
        <mxCell id="1" parent="0" />
        <mxCell id="IQehfHSFWcXycnDFZH4A-13" style="edgeStyle=orthogonalEdgeStyle;rounded=0;orthogonalLoop=1;jettySize=auto;html=1;exitX=0.5;exitY=1;exitDx=0;exitDy=0;entryX=0.5;entryY=0;entryDx=0;entryDy=0;" edge="1" parent="1" source="IQehfHSFWcXycnDFZH4A-5" target="IQehfHSFWcXycnDFZH4A-7">
          <mxGeometry relative="1" as="geometry" />
        </mxCell>
        <mxCell id="IQehfHSFWcXycnDFZH4A-5" value="&lt;p style=&quot;margin:0px;margin-top:6px;text-align:center;&quot;&gt;&lt;b&gt;Logon page&lt;br&gt;&lt;/b&gt;&lt;/p&gt;&lt;hr&gt;&lt;p style=&quot;margin:0px;margin-left:8px;&quot;&gt;+ CFN: String&lt;br&gt;+ eCN: String&lt;/p&gt;" style="align=left;overflow=fill;html=1;dropTarget=0;" vertex="1" parent="1">
          <mxGeometry x="330" y="280" width="180" height="90" as="geometry" />
        </mxCell>
        <mxCell id="IQehfHSFWcXycnDFZH4A-6" value="" style="shape=component;jettyWidth=8;jettyHeight=4;" vertex="1" parent="IQehfHSFWcXycnDFZH4A-5">
          <mxGeometry x="1" width="20" height="20" relative="1" as="geometry">
            <mxPoint x="-24" y="4" as="offset" />
          </mxGeometry>
        </mxCell>
        <mxCell id="IQehfHSFWcXycnDFZH4A-14" style="edgeStyle=orthogonalEdgeStyle;rounded=0;orthogonalLoop=1;jettySize=auto;html=1;entryX=1;entryY=0.5;entryDx=0;entryDy=0;" edge="1" parent="1" source="IQehfHSFWcXycnDFZH4A-7" target="IQehfHSFWcXycnDFZH4A-9">
          <mxGeometry relative="1" as="geometry" />
        </mxCell>
        <mxCell id="IQehfHSFWcXycnDFZH4A-7" value="&lt;p style=&quot;margin:0px;margin-top:6px;text-align:center;&quot;&gt;&lt;b&gt;Authorization&lt;br&gt;&lt;/b&gt;&lt;/p&gt;&lt;hr&gt;&lt;p style=&quot;margin:0px;margin-left:8px;&quot;&gt;+ Identity: String&lt;br&gt;+ Success: Boolean&lt;/p&gt;" style="align=left;overflow=fill;html=1;dropTarget=0;" vertex="1" parent="1">
          <mxGeometry x="330" y="420" width="180" height="90" as="geometry" />
        </mxCell>
        <mxCell id="IQehfHSFWcXycnDFZH4A-8" value="" style="shape=component;jettyWidth=8;jettyHeight=4;" vertex="1" parent="IQehfHSFWcXycnDFZH4A-7">
          <mxGeometry x="1" width="20" height="20" relative="1" as="geometry">
            <mxPoint x="-24" y="4" as="offset" />
          </mxGeometry>
        </mxCell>
        <mxCell id="IQehfHSFWcXycnDFZH4A-16" style="edgeStyle=orthogonalEdgeStyle;rounded=0;orthogonalLoop=1;jettySize=auto;html=1;" edge="1" parent="1" source="IQehfHSFWcXycnDFZH4A-9" target="IQehfHSFWcXycnDFZH4A-11">
          <mxGeometry relative="1" as="geometry" />
        </mxCell>
        <mxCell id="IQehfHSFWcXycnDFZH4A-9" value="&lt;p style=&quot;margin:0px;margin-top:6px;text-align:center;&quot;&gt;&lt;b&gt;Form page&lt;br&gt;&lt;/b&gt;&lt;/p&gt;&lt;hr&gt;&lt;p style=&quot;margin:0px;margin-left:8px;&quot;&gt;+ Form: ComplexObject&lt;br&gt;+ Identity: String&lt;/p&gt;" style="align=left;overflow=fill;html=1;dropTarget=0;" vertex="1" parent="1">
          <mxGeometry x="70" y="280" width="180" height="90" as="geometry" />
        </mxCell>
        <mxCell id="IQehfHSFWcXycnDFZH4A-10" value="" style="shape=component;jettyWidth=8;jettyHeight=4;" vertex="1" parent="IQehfHSFWcXycnDFZH4A-9">
          <mxGeometry x="1" width="20" height="20" relative="1" as="geometry">
            <mxPoint x="-24" y="4" as="offset" />
          </mxGeometry>
        </mxCell>
        <mxCell id="IQehfHSFWcXycnDFZH4A-19" style="edgeStyle=orthogonalEdgeStyle;rounded=0;orthogonalLoop=1;jettySize=auto;html=1;entryX=0;entryY=0.5;entryDx=0;entryDy=0;" edge="1" parent="1" source="IQehfHSFWcXycnDFZH4A-11" target="IQehfHSFWcXycnDFZH4A-17">
          <mxGeometry relative="1" as="geometry" />
        </mxCell>
        <mxCell id="IQehfHSFWcXycnDFZH4A-11" value="&lt;p style=&quot;margin:0px;margin-top:6px;text-align:center;&quot;&gt;&lt;b&gt;Data process&lt;br&gt;&lt;/b&gt;&lt;/p&gt;&lt;hr&gt;&lt;p style=&quot;margin:0px;margin-left:8px;&quot;&gt;+ submittedInfo: ComplexObject&lt;br&gt;+ Submission: Boolean&lt;/p&gt;" style="align=left;overflow=fill;html=1;dropTarget=0;" vertex="1" parent="1">
          <mxGeometry x="70" y="480" width="180" height="90" as="geometry" />
        </mxCell>
        <mxCell id="IQehfHSFWcXycnDFZH4A-12" value="" style="shape=component;jettyWidth=8;jettyHeight=4;" vertex="1" parent="IQehfHSFWcXycnDFZH4A-11">
          <mxGeometry x="1" width="20" height="20" relative="1" as="geometry">
            <mxPoint x="-24" y="4" as="offset" />
          </mxGeometry>
        </mxCell>
        <mxCell id="IQehfHSFWcXycnDFZH4A-17" value="&lt;p style=&quot;margin:0px;margin-top:6px;text-align:center;&quot;&gt;&lt;b&gt;Database&lt;br&gt;&lt;/b&gt;&lt;/p&gt;&lt;hr&gt;&lt;p style=&quot;margin:0px;margin-left:8px;&quot;&gt;+ &lt;br&gt;+&lt;/p&gt;" style="align=left;overflow=fill;html=1;dropTarget=0;" vertex="1" parent="1">
          <mxGeometry x="190" y="620" width="180" height="90" as="geometry" />
        </mxCell>
        <mxCell id="IQehfHSFWcXycnDFZH4A-18" value="" style="shape=component;jettyWidth=8;jettyHeight=4;" vertex="1" parent="IQehfHSFWcXycnDFZH4A-17">
          <mxGeometry x="1" width="20" height="20" relative="1" as="geometry">
            <mxPoint x="-24" y="4" as="offset" />
          </mxGeometry>
        </mxCell>
      </root>
    </mxGraphModel>
  </diagram>
</mxfile>
